<?xml version="1.0" encoding="utf-8"?><!-- Uploaded to: SVG Repo, www.svgrepo.com, Generator: SVG Repo Mixer Tools -->
<svg width="800px" height="800px" viewBox="0 0 400 400" fill="none"
    xmlns="http://www.w3.org/2000/svg">
    <path d="M52 152.395C151.451 147.702 249.515 159.377 348.789 159.377" stroke="#000000" stroke-opacity="0.9" stroke-width="16" stroke-linecap="round" stroke-linejoin="round"/>
    <path d="M173.778 164.67C173.598 185.389 159.909 240.781 191.909 245.42C230.301 250.983 224.385 176.376 227.376 156.679" stroke="#000000" stroke-opacity="0.9" stroke-width="16" stroke-linecap="round" stroke-linejoin="round"/>
    <path d="M177.461 211.853C190.903 208.933 204.954 209.041 217.932 210.158" stroke="#000000" stroke-opacity="0.9" stroke-width="16" stroke-linecap="round" stroke-linejoin="round"/>
    <path d="M122.15 152.632C141.006 159.7 153.205 178.908 169.367 189.056" stroke="#000000" stroke-opacity="0.9" stroke-width="16" stroke-linecap="round" stroke-linejoin="round"/>
    <path d="M281.336 158.028C261.937 169.042 243.085 181.567 224.677 194.452" stroke="#000000" stroke-opacity="0.9" stroke-width="16" stroke-linecap="round" stroke-linejoin="round"/>
    <path d="M204.441 127C202.866 134.887 202.714 143.181 201.743 151.283" stroke="#000000" stroke-opacity="0.9" stroke-width="16" stroke-linecap="round" stroke-linejoin="round"/>
    <path d="M211.187 136.898C205.437 135.652 199.517 136.051 193.649 136.051" stroke="#000000" stroke-opacity="0.9" stroke-width="16" stroke-linecap="round" stroke-linejoin="round"/>
    <path d="M169.367 249.763C162.089 255.833 154.544 262.369 147.782 268.649" stroke="#000000" stroke-opacity="0.9" stroke-width="16" stroke-linecap="round" stroke-linejoin="round"/>
    <path d="M149.131 265.111C149.131 267.017 149.131 268.923 149.131 270.842" stroke="#000000" stroke-opacity="0.9" stroke-width="16" stroke-linecap="round" stroke-linejoin="round"/>
    <path d="M216.583 249.763C220.438 257.668 226.859 262.896 232.771 268.649" stroke="#000000" stroke-opacity="0.9" stroke-width="16" stroke-linecap="round" stroke-linejoin="round"/>
    <path d="M233.207 268.718C232.009 280.552 232.424 268.718 232.354 268.718" stroke="#000000" stroke-opacity="0.9" stroke-width="16" stroke-linecap="round" stroke-linejoin="round"/>
</svg>